<?xml version="1.0" encoding="UTF-8" standalone="no"?>
<!-- Created with Inkscape (http://www.inkscape.org/) -->

<svg
   xmlns:dc="http://purl.org/dc/elements/1.1/"
   xmlns:cc="http://creativecommons.org/ns#"
   xmlns:rdf="http://www.w3.org/1999/02/22-rdf-syntax-ns#"
   xmlns:svg="http://www.w3.org/2000/svg"
   xmlns="http://www.w3.org/2000/svg"
   xmlns:sodipodi="http://sodipodi.sourceforge.net/DTD/sodipodi-0.dtd"
   xmlns:inkscape="http://www.inkscape.org/namespaces/inkscape"
   width="1128.4257"
   height="800"
   id="svg4278"
   version="1.1"
   inkscape:version="0.48.4 r9939"
   sodipodi:docname="Новый документ 4">
  <defs
     id="defs4280" />
  <sodipodi:namedview
     id="base"
     pagecolor="#ffffff"
     bordercolor="#666666"
     borderopacity="1.0"
     inkscape:pageopacity="0.0"
     inkscape:pageshadow="2"
     inkscape:zoom="0.35"
     inkscape:cx="-342.42579"
     inkscape:cy="178.55672"
     inkscape:document-units="px"
     inkscape:current-layer="layer1"
     showgrid="false"
     fit-margin-top="0"
     fit-margin-left="0"
     fit-margin-right="0"
     fit-margin-bottom="0"
     inkscape:window-width="1920"
     inkscape:window-height="1018"
     inkscape:window-x="-8"
     inkscape:window-y="-8"
     inkscape:window-maximized="1" />
  <metadata
     id="metadata4283">
    <rdf:RDF>
      <cc:Work
         rdf:about="">
        <dc:format>image/svg+xml</dc:format>
        <dc:type
           rdf:resource="http://purl.org/dc/dcmitype/StillImage" />
        <dc:title></dc:title>
      </cc:Work>
    </rdf:RDF>
  </metadata>
  <g
     inkscape:label="Layer 1"
     inkscape:groupmode="layer"
     id="layer1"
     transform="translate(-123.14007,89.081116)">
    <g
       id="g4379"
       transform="matrix(2.240185,0,0,2.240185,-152.71646,-881.67089)">
      <path
         inkscape:connector-curvature="0"
         id="path4220"
         d="m 282.73051,353.81252 c -20.20639,11.58367 -7.40531,50.75254 -32,53.1875 4.29845,-14.58656 -12.86402,-32.74446 -25.82817,-28.32766 -8.322,19.08541 -8.81351,53.32819 18.91936,54.99443 19.28218,-3.34415 1.19745,12.57033 14.02585,22.01803 -1.25452,7.56911 -31.30827,3.3826 -43.55316,9.36591 -15.76239,2.54754 -31.66312,8.33376 -45.62064,14.76419 -12.91366,14.94824 -21.10934,33.6565 -29.29954,51.45335 -11.0072,34.60812 -18.809,70.8406 -15.4439,107.37333 -2.1149,25.58583 7.6522,55.77249 37.1928,57.98786 24.67452,6.73135 49.58904,13.71921 75.43912,13.37322 19.76731,3.66528 38.63183,-4.84831 57.13703,-4.87766 36.77135,3.40945 73.88671,0.89304 110.21875,-5.28135 13.4562,-4.89897 35.62294,-5.0073 28.62826,-25.42215 1.32517,-11.93033 -2.50428,-36.38135 1.28614,-39.87561 14.74898,20.6805 39.80083,33.75154 61.14736,13.18312 18.22827,-5.86037 38.58804,-19.23721 33.53651,-36.84855 9.69938,-5.13694 10.35207,-13.45308 21.40173,-3.44306 18.58927,2.06421 30.65882,-11.1251 47.71875,-10.59375 15.69989,-9.64059 14.96897,-25.709 18.78125,-41.15625 -9.42702,-8.18999 23.50523,-13.31278 4.33017,-24.60702 -16.93061,-7.23466 -36.93002,15.67813 -50.66662,5.00638 -25.40217,-12.53741 -30.07492,19.51381 -44.7573,30.35064 -12.77568,6.84325 -40.44865,8.49577 -54.25426,24.13324 -9.16923,-17.99194 -7.57533,-41.25805 -21.45348,-57.82057 -13.11906,-19.24339 -27.56957,-40.5697 -49.13601,-50.21892 -8.25663,-16.60347 -34.91298,-16.46732 -48.25,-22.90625 9.69027,-9.39796 -8.24066,-25.34785 11.87415,-19.4378 23.76721,6.90841 23.79244,-23.20867 23.66187,-38.85624 -3.52251,-19.91504 -20.50088,-6.04854 -21.72801,7.384 -8.54439,15.05588 -26.38323,17.38588 -29.57725,-1.20214 -2.58877,-11.83421 -3.93511,-54.34917 -26.44406,-43.48939 -4.84327,7.71244 -12.85706,22.64325 -15.13045,4.10157 -3.22745,-5.01916 -4.92846,-13.69179 -12.15625,-14.3124 z"
         style="fill:#f9f9f9;fill-opacity:1;fill-rule:nonzero;stroke:none" />
      <path
         inkscape:connector-curvature="0"
         id="path3409"
         d="m 173.28251,482.23886 c -11.1436,10.43116 -15.3666,25.6643 -24.0205,37.89516 -4.6733,10.72169 -8.6118,21.75046 -10.7059,33.27597 -5.7205,17.43086 -8.6909,35.70611 -10.0886,53.92668 -0.1661,15.99358 0.065,31.98837 1.8604,47.85811 1.0789,9.49423 0.8021,22.57896 10.9566,27.09193 8.7591,8.81776 20.9746,8.87066 31.9986,12.31037 10.2486,4.24376 21.6025,4.14342 32.0825,7.87887 11.7139,2.88801 23.8293,1.34792 35.7157,2.79896 12.9631,-0.21146 26.7551,1.28105 38.8097,-4.39319 4.2245,-9.08738 3.8336,-19.72971 4.0869,-29.60414 -1.707,-10.23562 18.0745,-3.15334 10.1704,-12.02659 -3.9436,-11.19948 -0.573,-24.20824 -7.7705,-34.36518 -5.1309,5.41933 -19.28,10.94816 -29.2944,12.87845 -18.2511,2.73881 -36.8891,0.51945 -55.253,1.67978 -4.1112,5.23152 -12.5322,1.82413 -6.1095,-3.79877 4.3293,-9.14561 -1.625,-19.44755 -2.2868,-28.9899 1.885,-10.3844 -4.3861,-22.74635 -0.7179,-31.47776 10.0722,-4.19201 9.6335,-18.02972 15.3906,-25.21231 7.4787,3.87795 -2.9233,15.13731 -4.1466,21.27832 -0.6376,6.94647 -11.4861,5.71851 -7.6886,9.36164 3.4745,11.74038 0.463,24.21172 4.0806,35.94487 2.6082,7.57401 4.0355,23.70062 -4.9315,24.41406 -5.455,-6.29257 11.793,-7.69021 16.5297,-6.84132 16.2156,-0.43007 32.7397,1.48171 48.6314,-2.27946 10.7159,-0.64656 19.1589,-12.22076 29.3914,-10.39225 9.0442,11.3699 4.7013,26.66312 9.9265,39.38771 5.7577,10.3951 -13.637,6.51176 -10.8529,10.89077 -0.4003,10.51054 -0.07,21.69045 -4.572,31.41763 -7.9608,7.11244 -19.7251,6.5405 -29.845,7.19153 -13.788,0.29039 -27.516,-1.04683 -41.2686,-1.38829 -11.2386,-1.26663 -21.7719,-5.78204 -33.0401,-6.70027 -8.4373,-2.95992 -16.8494,-5.74562 -25.8355,-6.59694 -8.6202,-3.87785 -17.7569,-8.89757 -23.8762,-16.10905 -5.7385,-11.93496 -4.9749,-25.4853 -6.625,-38.27767 -0.2126,-14.0688 -1.3928,-28.27732 0.1174,-42.29354 1.9146,-16.63793 5.0062,-33.13002 10.2098,-49.07555 2.3415,-12.63286 6.8171,-24.96656 12.9418,-36.23142 8.051,-11.69417 12.0476,-26.45556 23.4657,-35.63087 2.5172,-1.06642 4.6709,2.4181 2.5634,4.20366 z"
         style="fill:#000000;fill-opacity:1;fill-rule:nonzero;stroke:none" />
      <path
         inkscape:connector-curvature="0"
         id="path3411"
         d="m 218.13671,561.56252 c -3.8695,-0.20661 -2.2693,4.82437 -2.2236,7.14138 0.9441,5.68577 0.1603,11.46936 0.6924,17.17112 0.5173,2.49819 -4.1775,0.58562 -5.7813,1.71875 -2.6692,0.37827 -5.2308,1.23027 -7.8841,1.64213 -3.7778,0.0559 -3.0519,4.69657 -0.5567,5.64964 2.2268,2.59633 6.2527,2.57616 9.2901,3.85825 2.3422,0.76156 6.1693,1.0952 3.5828,4.14274 -1.8286,2.9381 -3.5481,5.93412 -4.9359,9.11112 -1.0499,2.72012 -3.699,5.88577 -1.9553,8.82118 2.4691,2.86592 6.1992,0.17883 8.4831,-1.55772 2.7996,-2.13127 4.7516,-5.06702 6.8802,-7.80318 1.3664,-1.11034 2.5964,-3.69867 3.4063,-0.78271 2.3809,3.83383 4.0386,8.11811 6.6533,11.79087 3.0462,1.90241 5.477,-1.8997 4.7633,-4.73743 0.1304,-4.97101 -0.015,-9.94418 0.023,-14.91614 4.2849,0.0806 8.3946,1.29201 12.4612,2.52002 2.5091,0.73551 6.7801,0.98523 6.9692,-2.5663 -0.6702,-3.94394 -5.1497,-5.72905 -7.6311,-8.53951 -2.9713,-2.88277 -6.9739,-4.11934 -10.7993,-5.41421 2.4826,-4.31286 4.4175,-9.00522 5.0048,-13.97681 1.3113,-2.55197 1.8316,-7.31397 -2.3625,-6.88785 -3.7731,1.03732 -6.5765,4.12219 -9.2236,6.8406 -1.3847,1.64009 -2.4793,6.16273 -4.0264,2.26008 -3.1561,-4.27163 -6.3308,-8.66067 -7.9368,-13.78699 -0.4676,-1.41282 -1.4904,-1.84448 -2.8931,-1.69903 z m 3.2813,13.4375 c 2.4156,3.05364 4.0209,7.12772 7.3769,9.22209 3.3964,0.87378 6.265,-2.33021 7.3621,-5.22904 1.1254,-1.87004 4.3,-5.12418 2.7697,-1.01579 -1.0112,3.55862 -2.8569,6.79758 -4.5427,10.06041 -1.1468,2.40488 0.8189,4.90135 3.2159,5.35045 3.2898,1.26024 6.9084,2.06211 9.4961,4.61733 1.2816,0.94965 2.2972,1.95658 0.08,1.02376 -3.3361,-0.75631 -6.8518,-1.48063 -10.2628,-0.96309 -3.3286,0.43678 -3.6469,4.17046 -3.3402,6.82889 -0.01,2.36841 0.029,4.73662 0.032,7.10499 -1.6992,-2.82801 -2.9377,-6.14661 -5.537,-8.28861 -2.5775,-2.07935 -4.9578,0.84387 -6.3692,2.78861 -2.8144,2.30162 -4.3033,5.76427 -7.0938,8.09375 1.4129,-2.95224 2.8263,-5.90279 4.6563,-8.625 1.2421,-2.61648 3.2931,-5.96919 1.5996,-8.79476 -1.5898,-2.03704 -4.5459,-1.86735 -6.7559,-2.89274 -1.2694,-0.66239 -6.5176,-1.37669 -2.7263,-1.63997 3.1542,-1.12921 7.2316,0.28157 9.7787,-2.37227 1.6974,-2.67347 -0.264,-5.8418 0.2599,-8.74499 0,-2.17468 0.01,-4.34935 3e-4,-6.52402 z m -4.5625,12.875 c 0.3944,0.32326 -0.7071,0.98651 0,0 z m 20.4062,30.9375 0.1875,0.28125 -0.1875,-0.28125 z"
         style="fill:#000000;fill-opacity:1;fill-rule:nonzero;stroke:none" />
      <path
         inkscape:connector-curvature="0"
         id="path3416"
         d="m 171.18581,478.50538 c 7.11,-2.0659 13.5079,-6.08571 20.729,-7.86456 6.432,-2.02017 12.8784,-4.06801 19.5666,-5.06922 3.7834,-0.5628 7.4351,-1.66286 11.1019,-2.69797 5.1578,-0.74696 10.3583,-1.17011 15.5233,-1.82136 3.8602,-1.12854 7.8755,-1.09499 11.8421,-1.33563 2.8802,-0.28323 6.6242,-2.02326 8.9932,0.25817 1.8283,3.63452 -2.8424,4.19449 -5.3625,4.13233 -4.5744,1.26143 -9.4092,0.3036 -13.957,1.74055 -4.3287,0.74748 -8.7305,0.91449 -13.0794,1.55273 -4.2298,0.22993 -8.0835,2.22988 -12.2777,2.72079 -6.5551,1.08781 -13.0138,2.66534 -19.2968,4.83719 -6.731,1.61355 -12.871,4.87086 -19.2746,7.37919 -2.2414,1.22836 -6.8438,1.85909 -6.3032,-2.01154 0.1945,-0.89056 0.9461,-1.55779 1.7951,-1.82067 z"
         style="fill:#000000;fill-opacity:1;fill-rule:nonzero;stroke:none" />
      <path
         inkscape:connector-curvature="0"
         id="path3418"
         d="m 184.80491,478.33904 c 3.8543,3.96536 6.9049,8.6331 9.2982,13.60552 3.4163,6.36676 5.5621,13.31145 8.1143,20.04888 1.6418,5.50803 3.5247,10.99994 4.3584,16.70158 0.5051,4.4771 1.2044,8.93896 1.2609,13.45247 0.7955,4.52223 1.5722,9.06327 1.5164,13.6713 1.3948,3.91722 -5.2734,5.25155 -4.9844,0.96422 0.065,-4.54976 -0.5669,-9.05325 -1.4251,-13.51327 -0.2298,-4.35255 -0.6112,-8.69417 -1.2389,-13.01388 -0.667,-5.70118 -2.605,-11.16633 -4.2203,-16.65382 -2.3797,-6.28035 -4.3982,-12.74099 -7.4817,-18.72239 -1.9095,-3.79907 -3.9524,-7.54452 -6.7477,-10.77828 -1.9907,-1.65624 -4.8221,-5.62432 -0.8136,-6.73779 0.8982,-0.15585 1.7995,0.28844 2.3635,0.97546 z"
         style="fill:#000000;fill-opacity:1;fill-rule:nonzero;stroke:none" />
      <path
         inkscape:connector-curvature="0"
         id="path3420"
         d="m 250.89971,466.73528 c -4.0886,10.29465 -1.215,21.53867 -2.5373,32.24369 0.1011,8.64665 -1.8991,17.53647 0.9238,25.96369 2.2248,13.34742 3.6574,26.8268 5.7371,40.19655 2.3396,7.69241 2.5317,15.80605 4.3792,23.61443 0.9314,6.51592 1.994,13.01579 2.788,19.54638 1.2927,6.55456 2.3112,13.18617 4.9331,19.35967 -0.7464,-3.30912 -6.5942,1.92786 -2.8524,-1.5767 7.4539,-1.02904 -0.2305,9.66431 -2.0469,2.71263 -3.0778,-7.58807 -4.2725,-15.77762 -5.5846,-23.8256 -1.1805,-11.26709 -3.7306,-22.33278 -5.1287,-33.57315 -2.6425,-9.57009 -3.2592,-19.54339 -4.736,-29.33841 -0.9924,-7.37737 -2.0316,-14.75941 -3.6982,-22.01033 -0.8384,-7.09593 0.3335,-14.20339 0.2877,-21.31213 1.3803,-11.4914 -1.8673,-23.79309 3.3619,-34.61447 1.7751,-2.07972 5.2585,0.0742 4.1733,2.61375 z"
         style="fill:#000000;fill-opacity:1;fill-rule:nonzero;stroke:none" />
      <path
         inkscape:connector-curvature="0"
         id="path3422"
         d="m 266.63671,501.93752 c -4.2313,1.5467 -3.5137,7.76669 -5.0549,11.43645 -1.7886,8.65427 -1.8807,17.57268 -3.937,26.18821 -1.4672,7.31605 -0.6296,14.82969 -0.7946,22.23443 -0.4541,5.21252 5.8489,4.37094 8.3914,1.68351 6.4917,-3.22049 11.3865,-8.66981 16.6723,-13.46919 3.6072,-3.13965 5.7348,-7.872 10.148,-10.03459 3.0248,-1.22208 6.1733,-7.06361 8.4834,-2.24248 6.2055,6.97229 13.7929,12.87732 22.3962,16.56451 7.3345,3.02979 14.4028,6.73572 21.8679,9.4388 4.209,1.7669 5.9012,-3.29582 5.4124,-6.59256 -0.091,-7.92527 -1.025,-15.81613 -1.1788,-23.73834 -0.7351,-3.51497 -1.7633,-7.28233 -3.8528,-10.18603 -4.1696,-1.89026 -4.5841,3.79455 -2.4855,6.13062 2.4284,5.00087 1.0709,10.68975 1.9399,15.99881 0.2351,4.41001 0.7469,8.82262 0.5234,13.2441 -7.9856,-3.32633 -15.8355,-7.00236 -23.7502,-10.48412 -7.1919,-3.9389 -13.527,-9.28148 -18.8076,-15.54598 -2.4398,-4.12998 -7.0712,-2.85886 -9.411,0.5614 -3.5485,2.63907 -7.87,4.45207 -10.3218,8.33188 -4.2674,5.33091 -9.545,9.73565 -14.6341,14.24794 -1.7839,0.96405 -5.7169,4.55769 -6.419,3.13057 0.029,-7.26002 -0.5057,-14.62767 1.3898,-21.72175 1.974,-9.87567 1.784,-20.14281 5.1062,-29.74638 0.9156,-2.0754 1.545,-5.23016 -1.6836,-5.42981 z m 32.6563,32.3125 c -0.036,0.16037 -0.4598,0.3381 0,0 z"
         style="fill:#000000;fill-opacity:1;fill-rule:nonzero;stroke:none" />
      <path
         inkscape:connector-curvature="0"
         id="path3424"
         d="m 261.23711,440.12177 c -2.4438,0.0902 -6.0884,-0.86753 -4.7541,2.91648 1.0033,2.80064 4.5454,8.16937 4.5279,8.78149 -0.5364,1.75727 6.8657,-0.0236 4.0223,4.02213 -0.8163,5.29281 -0.6301,10.66342 -1.5672,15.94771 -0.1428,6.61373 -0.3182,13.27548 0.015,19.87473 1.7778,8.54822 7.431,15.66411 13.1037,22.05424 3.1934,3.76871 8.4217,4.64559 12.776,6.49406 4.217,1.39931 8.546,3.41196 13.0783,2.6744 4.628,-0.55604 3.5339,-9.59661 9.0091,-7.05255 2.2877,3.18395 5.2275,5.84713 9.1086,6.95807 4.1441,0.65529 9.7719,2.27917 12.8869,-1.42108 2.8334,-3.7439 5.9263,-7.65467 6.2321,-12.54593 2.1328,-3.73076 -0.1791,-10.80422 4.663,-12.06925 4.5687,2.45623 0.6362,8.91879 0.2481,12.999 -0.5019,6.02329 -4.2331,10.98643 -7.931,15.47586 -3.3551,4.25288 -9.0876,3.329 -13.8069,3.15095 -5.5103,-0.90213 -11.2773,-3.43862 -14.2469,-8.40508 2.2344,1.26716 4.0001,-2.36913 2.1336,1.18777 -1.545,4.98142 -7.0824,7.65982 -12.0618,6.80767 -5.6476,-0.7497 -10.9872,-3.06279 -16.3164,-5.03668 -5.0656,-1.49513 -9.1837,-4.85069 -12.2926,-9.05368 -5.4573,-6.80227 -10.9047,-14.44296 -11.748,-23.38295 0.1304,-8.71596 -0.4824,-17.48676 1.0397,-26.1169 0.032,-4.21648 0.228,-8.68909 1.6872,-12.60213 3.2968,0.5346 6.4091,2.79247 1.8819,4.71089 -5.4565,2.05447 -6.9622,-3.75308 -8.9267,-7.1267 -2.9049,-3.72713 -4.0113,-10.0267 0.086,-13.32484 3.2644,-2.6347 13.9215,-0.43404 7.7737,4.02585 l -0.6215,0.0562 0,3.2e-4 z"
         style="fill:#000000;fill-opacity:1;fill-rule:nonzero;stroke:none" />
      <path
         inkscape:connector-curvature="0"
         id="path3426"
         d="m 342.35411,478.96211 c 0.5762,-2.55627 1.5103,-5.07312 1.3462,-7.73896 0.069,-3.67775 -0.6743,-7.30651 -0.9371,-10.96312 -0.2133,-1.59784 -0.043,-3.63643 1.66,-4.3756 1.4947,-0.76204 3.1627,-0.26567 4.7244,-0.11489 0.2053,-0.0134 1.0736,-1.61475 1.2523,-2.5723 0.4951,-2.05691 0.5511,-4.26788 -0.3368,-6.23608 -0.018,-0.69895 -1.4683,-1.83859 -0.152,-0.99911 1.093,0.33027 -1.365,-0.10801 -1.5145,-0.7785 -1.4262,-1.67352 -2.0672,-4.304 -0.9948,-6.30961 1.0815,-1.45219 3.6034,-0.83497 4.4062,0.6266 1.8686,3.03969 3.6519,6.3459 3.9243,9.96824 0.1049,3.61476 -0.6315,7.68402 -3.4954,10.16016 -1.6291,1.37684 -3.8472,1.17444 -5.7976,0.82484 0.512,0.0375 1.5123,-1.51884 1.2714,-1.79137 0.042,2.99095 0.6495,5.93647 0.8503,8.91788 0.2942,3.47895 0.2485,7.05462 -0.8187,10.41145 -0.4262,1.55744 -0.5597,3.88948 -2.5909,4.13856 -1.7651,0.30832 -3.3269,-1.44066 -2.7973,-3.16819 z"
         style="fill:#000000;fill-opacity:1;fill-rule:nonzero;stroke:none" />
      <path
         inkscape:connector-curvature="0"
         id="path3428"
         d="m 329.47761,483.1012 c -4.813,-2.26992 -10.2473,-1.40959 -15.3813,-1.56372 -4.7325,0.0392 -9.5039,-0.25667 -14.1773,0.67168 -3.5486,0.51765 -7.1504,0.29354 -10.7193,0.33957 -1.4064,1.21592 -2.9622,3.96208 -3.4069,6.33299 -0.9646,2.40284 -1.6085,4.91511 -1.8956,7.49071 -0.4989,1.06118 -0.3364,3.16765 -1.0054,0.98944 1.3175,-0.31896 4.4727,-0.0608 6.5204,-0.004 4.0337,0.48295 8.108,0.26126 12.1361,0.80556 3.5191,0.068 7.0475,0.0976 10.5079,0.84162 3.0081,0.27629 6.0203,0.82626 9.0466,0.40883 2.3999,-0.52253 5.0069,-0.72032 7.1772,-1.93455 1.4817,-1.71665 3.2503,-3.12301 4.2899,-4.07853 2.4198,-1.55993 5.0751,2.14527 2.9608,3.99132 -1.6434,1.39964 -3.0283,3.06915 -4.7152,4.40725 -2.5101,1.55358 -5.5295,1.75998 -8.325,2.50811 -3.0907,0.391 -6.2041,0.28887 -9.2807,-0.1657 -3.2097,-0.28463 -6.3752,-1.09935 -9.6197,-0.90279 -3.3244,-0.0302 -6.6127,-0.63085 -9.9427,-0.54975 -3.0855,-0.17395 -6.1574,-0.54629 -9.2535,-0.44842 -2.2409,-0.0411 -5.3043,-0.44406 -5.9431,-3.01282 -0.2773,-2.36 0.9115,-4.61541 1.076,-6.95277 0.4374,-2.42073 1.4884,-4.65435 2.1721,-7.00526 0.8466,-2.57035 2.2977,-4.95712 4.5608,-6.50588 2.0807,-1.83628 4.9755,-1.04519 7.4756,-1.21173 4.8477,0.2179 9.5707,-1.32177 14.4237,-1.01435 5.4669,0.0741 10.944,-0.18059 16.4034,0.12579 2.6549,0.37942 5.4125,0.92837 7.7192,2.34749 2.234,1.90863 -0.2402,5.43043 -2.804,4.09033 z"
         style="fill:#000000;fill-opacity:1;fill-rule:nonzero;stroke:none" />
      <path
         inkscape:connector-curvature="0"
         id="path3430"
         d="m 279.68931,494.01994 c 3.1011,-3.63532 7.2562,-6.57194 12.1124,-7.10254 5.6544,-1.42159 11.5516,-0.53801 17.3158,-0.78318 2.4346,-0.0985 4.9332,0.16835 7.3348,-0.11997 3.8153,-3.27608 9.0211,-3.88034 13.786,-4.66075 3.1072,-1.20379 6.4578,-1.32168 9.665,-2.14673 3.6948,-0.72901 7.2997,-1.80339 11.0899,-2.05581 3.6729,-0.83132 7.5369,-0.0965 11.1118,-1.3591 5.4398,-0.44266 10.932,-1.87137 16.388,-1.05015 3.7122,2.19716 -0.4417,6.17601 -3.5933,4.7744 -4.1477,0.0573 -8.2598,0.84879 -12.3609,1.32312 -3.7606,1.22477 -7.8099,0.44525 -11.6433,1.37632 -3.1399,0.14327 -6.0881,1.15933 -9.14,1.73507 -3.6795,0.86182 -7.4532,1.19599 -11.0291,2.44912 -4.0674,0.52016 -8.4099,1.12355 -11.6934,3.80539 -2.5489,1.55859 -5.6453,0.7133 -8.4781,0.92907 -5.5132,0.16626 -11.0874,-0.39905 -16.553,0.39655 -3.3751,0.56045 -6.7489,1.60284 -9.0995,4.261 -1.2282,3.77829 -7.7235,2.91092 -5.6129,-1.29269 l 0.3998,-0.47916 0,4e-5 z"
         style="fill:#000000;fill-opacity:1;fill-rule:nonzero;stroke:none" />
      <path
         inkscape:connector-curvature="0"
         id="path3432"
         d="m 381.13681,473.50002 c -2.5578,-0.0693 -5.2368,1.59938 -5.4496,4.33362 0.015,3.12015 -0.9183,6.14111 -0.4254,9.26008 -0.039,1.74502 0.6314,2.39317 1.6874,3.59375 -5.1243,0.13531 -10.287,-0.30664 -15.3847,0.31435 -3.9775,0.39738 -8.0162,0.0835 -12.0191,0.18911 -3.36,0.009 -6.6715,-0.63699 -10.0301,-0.68191 -4.4094,-0.49838 -8.9125,-0.37022 -13.194,-1.72757 -3.0068,-0.62435 -5.9388,-1.90615 -9.0203,-2.01127 -3.6501,0.90236 -1.6374,5.71649 1.578,5.24281 5.7953,1.52444 11.6232,3.29982 17.6819,3.20661 3.5018,0.42236 7.0267,0.47133 10.5256,0.91471 4.8632,0.043 9.7444,0.17313 14.5996,-0.0645 4.4897,-0.74882 9.0831,-0.22112 13.6147,-0.38242 2.7335,-0.24976 5.3912,0.33991 8.0586,0.65298 3.4395,-0.47267 4.4588,-4.56397 4.6642,-7.50131 0.2309,-2.65486 -0.7366,-5.17863 -0.4753,-7.84537 0.01,-3.22021 -1.7539,-6.9762 -5.2894,-7.39068 -0.3699,-0.0678 -0.7462,-0.10397 -1.1221,-0.10303 z m 0.1562,5 c 1.6497,0.28031 0.873,1.87563 -0.8125,1.06245 0.076,-0.56674 -0.013,-1.29363 0.8125,-1.06245 z m -0.7812,6.0625 c 3.0912,-1.03035 2.4586,4.85297 0.062,2.6875 -0.1433,-0.8545 -0.019,-1.80052 -0.062,-2.6875 z m 2.0625,3.28125 c 0.059,0.36291 -0.1248,0.21315 0,0 z"
         style="fill:#000000;fill-opacity:1;fill-rule:nonzero;stroke:none" />
      <path
         inkscape:connector-curvature="0"
         id="path3434"
         d="m 294.70711,482.57498 c 0.2506,1.35781 1.1207,2.66299 0.7756,4.07353 -0.4935,1.90111 -3.3814,2.39429 -4.4189,0.68993 -0.6619,-1.2347 -0.9554,-2.64354 -1.2933,-3.99537 -0.3851,-1.8124 1.6232,-3.40067 3.3102,-2.74102 0.8684,0.28637 1.4492,1.0998 1.6264,1.97293 z"
         style="fill:#000000;fill-opacity:1;fill-rule:nonzero;stroke:none" />
      <path
         inkscape:connector-curvature="0"
         id="path3436"
         d="m 311.86361,482.33615 c 0.1836,1.34517 0.6045,2.65794 0.7087,4.00783 0.022,1.99524 -2.6896,3.10515 -4.1145,1.75325 -1.1226,-1.11081 -1.0382,-2.82926 -1.4031,-4.26662 -0.4752,-1.42115 -0.061,-3.34925 1.5724,-3.76114 1.549,-0.50132 3.1531,0.6479 3.2365,2.26668 z"
         style="fill:#000000;fill-opacity:1;fill-rule:nonzero;stroke:none" />
      <path
         inkscape:connector-curvature="0"
         id="path3438"
         d="m 299.24231,500.15215 c -0.1378,-2.15818 -0.3534,-4.31387 -0.7778,-6.43601 -0.3376,-1.82187 1.7117,-3.35698 3.3808,-2.65336 1.6401,0.598 1.6592,2.54906 1.9187,3.99299 0.2445,1.7951 0.4351,3.60675 0.464,5.41748 -0.017,1.8528 -2.3223,2.96757 -3.826,1.95766 -0.7844,-0.46616 -1.1769,-1.38988 -1.1597,-2.27876 z"
         style="fill:#000000;fill-opacity:1;fill-rule:nonzero;stroke:none" />
      <path
         inkscape:connector-curvature="0"
         id="path3440"
         d="m 318.94251,491.92318 c 0.6553,2.23717 1.3977,4.45203 2.0656,6.68188 0.421,1.87448 -1.7797,3.49072 -3.4679,2.67773 -1.5573,-0.74289 -1.6452,-2.66015 -2.2091,-4.08742 -0.4262,-1.52863 -1.0437,-3.01874 -1.2998,-4.58504 -0.1799,-1.98722 2.4349,-3.30875 3.9624,-2.07416 0.4584,0.3429 0.7711,0.84869 0.9488,1.38701 z"
         style="fill:#000000;fill-opacity:1;fill-rule:nonzero;stroke:none" />
      <path
         inkscape:connector-curvature="0"
         id="path3442"
         d="m 293.66191,457.8583 c 0.7398,1.29325 1.3879,3.00858 3.0419,3.3153 1.5726,0.31059 3.2488,0.31968 4.6608,1.18542 1.0816,0.88167 2.4199,1.08282 3.7501,1.31702 1.1602,0.14439 2.4684,0.4244 3.5443,-0.15064 1.111,-0.8481 2.107,-1.85906 3.3989,-2.43589 1.0228,-0.6006 1.7495,-1.54719 2.4782,-2.46082 0.8905,-1.2231 2.86,-1.32493 3.8398,-0.1484 1.0101,1.01329 0.7335,2.68777 -0.2198,3.63267 -0.9212,1.04659 -1.7604,2.21726 -3.0216,2.88542 -1.5062,0.83713 -2.7765,2.01075 -4.1875,2.98194 -2.109,1.07573 -4.5838,1.02087 -6.8582,0.59199 -1.6687,-0.42087 -3.578,-0.50596 -4.8837,-1.75779 -1.9396,-0.83104 -4.2839,-0.45733 -6.046,-1.77145 -2.0519,-1.19216 -3.1819,-3.39712 -4.1836,-5.45333 -0.5901,-1.43122 0.4557,-3.17305 1.9978,-3.33623 1.1582,-0.20988 2.2646,0.55017 2.6886,1.60479 z"
         style="fill:#000000;fill-opacity:1;fill-rule:nonzero;stroke:none" />
      <path
         inkscape:connector-curvature="0"
         id="path3521"
         d="m 274.23051,434.09377 c -1.6732,-0.29165 -3.3365,1.03411 -4.8171,0.48572 -2.3251,-0.6362 -3.37,1.97503 -3.6424,3.80794 -0.8336,3.1775 -1.1786,6.55701 -0.2798,9.76155 0.4572,2.84267 1.4637,5.54799 2.3973,8.25719 0.7887,1.4297 1.1783,3.06164 2.1037,4.41056 1.3437,1.86628 3.5719,2.85165 5.832,2.96036 2.3309,0.25851 4.8137,0.038 6.7596,-1.39873 3.0497,-2.41067 6.4975,-4.23303 9.7153,-6.39812 3.7834,-2.73359 6.9086,-6.24614 10.014,-9.69736 1.7535,-2.24964 2.5994,-5.53493 1.2028,-8.1623 -0.8089,-1.64253 -2.4353,-2.79309 -4.2812,-2.88094 -2.6927,-0.18858 -5.3602,-0.60934 -8.0363,-0.95873 -4.9513,-0.36978 -9.922,-0.0652 -14.8819,-0.15591 -0.6962,0.0109 -1.3906,-0.01 -2.086,-0.0312 z"
         style="fill:#000000;fill-opacity:1;fill-rule:nonzero;stroke:none" />
      <path
         inkscape:connector-curvature="0"
         id="path3514"
         d="m 317.60551,436.62502 c -1.2485,0.0231 -2.6215,0.0348 -3.6314,0.86693 -1.0383,0.33996 -2.7141,-0.23729 -3.3266,1.24527 -0.6433,1.44886 -0.7675,3.0796 -0.975,4.63901 -0.3735,2.41073 0.5073,4.86734 2.1132,6.66986 1.5399,1.99508 2.9621,4.1758 5.1638,5.51638 1.5409,1.10183 3.1366,2.14226 4.8771,2.90076 2.3886,1.70896 5.1838,2.66907 7.8729,3.78917 2.0436,1.1953 4.7689,1.3819 6.7471,-0.0708 2.5121,-1.56494 3.6757,-4.60433 3.65,-7.47054 0,-3.43028 0.064,-6.86499 -0.047,-10.29346 -0.1771,-2.28601 -2.1361,-4.05312 -4.2642,-4.61856 -3.7289,-1.43963 -7.8099,-1.40511 -11.6262,-2.52211 -2.1405,-0.53575 -4.3545,-0.67556 -6.5541,-0.65196 z"
         style="fill:#000000;fill-opacity:1;fill-rule:nonzero;stroke:none" />
      <path
         inkscape:connector-curvature="0"
         id="path3448"
         d="m 316.44921,441.65627 c 0.014,-0.004 0.039,0.004 0.062,0 -0.031,0.0101 -0.063,0.0212 -0.094,0.0312 -0.02,-0.0129 0,-0.0223 0.031,-0.0312 z"
         style="fill:#000000;fill-opacity:1;fill-rule:nonzero;stroke:none" />
      <path
         inkscape:connector-curvature="0"
         id="path3450"
         d="m 301.33631,440.67761 c 2.0266,-0.17708 4.0541,-0.3713 6.0866,-0.45683 1.5755,-0.003 3.1465,0.58074 4.345,1.59933 0.8098,0.71791 1.0774,1.97765 0.5481,2.93916 -0.5159,1.08675 -1.8766,1.69414 -3.0135,1.2571 -0.4312,-0.15988 -0.8198,-0.42324 -1.0329,-0.57008 0.1137,-0.32506 -0.7746,-0.17602 -1.1154,-0.20167 -1.9975,0.0825 -3.9856,0.33196 -5.9811,0.42934 -1.0765,-0.007 -2.1374,-0.72733 -2.3952,-1.80149 -0.3568,-1.18098 0.2786,-2.59089 1.4611,-3.00499 0.3491,-0.13359 0.7245,-0.19014 1.0973,-0.18987 z"
         style="fill:#000000;fill-opacity:1;fill-rule:nonzero;stroke:none" />
      <path
         inkscape:connector-curvature="0"
         id="path3452"
         d="m 356.77021,500.35031 c -0.1234,3.70541 1.0951,7.26363 1.4142,10.9187 0.07,3.02006 0.6062,6.00852 0.6027,9.03371 0.4054,2.94861 0.5785,5.92337 0.5068,8.89804 0.9091,3.23357 1.0878,6.6036 1.0244,9.94874 0.1704,3.26908 1.2324,6.43536 1.0016,9.7338 0.01,2.61892 -0.029,5.24937 0.032,7.85314 -0.3003,2.86238 -4.8934,2.58894 -4.9533,-0.23654 -0.3395,-3.97442 0.3105,-8.01916 -0.408,-11.95856 -0.6439,-2.97991 -0.7142,-6.03057 -0.726,-9.06774 -0.035,-2.75997 -1.2399,-5.3732 -0.9798,-8.15768 0.063,-3.35084 -0.6374,-6.65085 -0.64,-10.00004 -0.3231,-2.47052 -0.3364,-4.96822 -0.65,-7.43654 -0.6752,-3.42114 -1.4836,-6.93544 -1.1016,-10.43018 0.8368,-2.81656 5.06,-1.98605 4.8766,0.90115 z"
         style="fill:#000000;fill-opacity:1;fill-rule:nonzero;stroke:none" />
      <path
         inkscape:connector-curvature="0"
         id="path3454"
         d="m 368.94011,615.25894 c 0.6674,4.22943 0.9059,8.51139 1.7486,12.71554 0.2915,4.51388 0.7256,9.0171 0.789,13.5443 0.5253,4.82036 0.3117,9.68442 0.5877,14.50698 0.9091,4.38592 1.5048,8.84491 1.3799,13.33492 0.6613,4.37948 0.5597,8.84682 0.406,13.2569 -0.8504,2.98625 -2.2246,5.81225 -2.3438,8.98954 1.2045,4.19433 -5.814,4.91234 -5.0434,0.51428 0.2967,-3.30636 0.7117,-6.70922 2.3576,-9.65672 0.3072,-4.51017 0.1157,-9.06672 -0.3769,-13.55874 0.1688,-4.26938 -0.6528,-8.45952 -1.3929,-12.63616 -0.2417,-4.92752 -0.062,-9.88467 -0.5868,-14.80507 -0.1415,-4.83761 -0.4155,-9.67888 -0.9835,-14.4827 -0.7832,-3.91001 -0.9886,-7.9106 -1.5228,-11.84953 0.2202,-3.07288 4.8737,-2.97196 4.9813,0.12646 z"
         style="fill:#000000;fill-opacity:1;fill-rule:nonzero;stroke:none" />
      <path
         inkscape:connector-curvature="0"
         id="path3456"
         d="m 348.36881,459.87051 c 3.8968,0.2475 7.8844,0.30034 11.5956,1.65639 3.2905,0.93197 6.4526,2.24259 9.666,3.39443 3.056,0.7092 6.1595,1.2724 9.1421,2.26188 1.9328,0.82193 3.9538,1.34794 5.9874,1.85055 2.7609,0.99162 5.3692,2.36977 7.9756,3.69454 1.478,0.63029 2.4624,2.51708 1.4219,3.94076 -0.9125,1.52618 -3.0506,1.3375 -4.2053,0.20654 -2.9014,-1.31374 -5.6682,-3.05477 -8.8467,-3.61618 -2.5824,-0.66818 -4.9878,-1.92493 -7.6452,-2.33565 -2.8288,-0.74447 -5.7776,-1.09003 -8.4377,-2.38694 -3.1549,-1.17108 -6.3405,-2.32103 -9.6234,-3.06987 -2.6266,-0.40952 -5.3029,-0.39861 -7.9315,-0.72005 -2.1698,-0.50066 -2.346,-3.91898 -0.2589,-4.66156 0.3664,-0.1514 0.7649,-0.21512 1.1601,-0.21484 z"
         style="fill:#000000;fill-opacity:1;fill-rule:nonzero;stroke:none" />
      <path
         inkscape:connector-curvature="0"
         id="path3458"
         d="m 399.18411,479.88289 c 2.75764,5.47978 4.89278,11.23742 7.34967,16.85179 1.89482,4.47534 3.15838,9.17723 5.02453,13.66362 1.53327,4.30735 2.26296,8.85985 4.01795,13.09527 0.87124,3.96426 2.11521,7.86233 2.41286,11.93894 0.92566,2.96089 0.70673,6.07045 1.19109,9.09069 1.34656,2.37197 -0.12128,6.57709 -3.32422,4.86955 -1.92812,-2.03549 -1.71452,-5.30009 -1.98687,-7.95869 -0.16186,-2.97136 -1.03776,-5.84489 -1.29759,-8.80792 -0.52447,-2.75092 -1.3013,-5.43772 -1.92742,-8.16269 -2.06777,-5.05298 -2.74799,-10.55061 -5.01091,-15.53671 -1.65085,-4.74704 -3.24312,-9.5199 -5.32836,-14.1027 -1.89773,-4.36933 -3.60093,-8.82469 -5.74423,-13.08347 -1.076,-2.87409 3.38079,-4.66304 4.6235,-1.85768 z"
         style="fill:#000000;fill-opacity:1;fill-rule:nonzero;stroke:none" />
      <path
         inkscape:connector-curvature="0"
         id="path3460"
         d="m 425.50573,581.3311 c 1.24972,10.16722 1.81368,20.43468 4.01257,30.46686 0.5669,5.28913 1.06643,10.59007 1.75879,15.87097 0.406,6.04277 1.05073,12.06909 1.25057,18.11881 -0.0499,13.93737 0.0883,27.88416 -0.0525,41.81778 -0.67985,3.5824 -6.01492,1.79779 -4.94385,-1.51213 -0.061,-14.65329 0.14546,-29.31275 -0.12463,-43.96123 -0.71173,-7.60021 -1.02045,-15.24662 -2.18012,-22.80503 -0.29804,-7.63662 -2.56765,-15.01184 -3.09803,-22.6303 -0.45036,-5.15474 -1.15928,-10.28686 -1.60512,-15.43745 0.18643,-3.07506 4.8408,-3.0254 4.98235,0.0717 z"
         style="fill:#000000;fill-opacity:1;fill-rule:nonzero;stroke:none" />
      <path
         inkscape:connector-curvature="0"
         id="path3462"
         d="m 288.81601,620.88854 c 1.8951,-5.98757 3.3195,-12.16385 5.9451,-17.88954 2.9122,-4.63176 8.7757,-5.40427 13.0926,-8.13874 2.9297,-2.85074 5.6748,1.32644 5.2494,4.22455 2.0221,3.05219 6.2614,4.02369 9.4531,2.22659 6.7182,-2.00517 13.7645,-2.79415 20.769,-2.54568 3.4544,-0.37501 7.5593,1.04288 8.4909,4.75608 1.1814,3.94441 -2.512,6.65855 -5.7391,7.8584 -4.7069,2.55259 -10.0301,3.444 -15.0395,5.13838 -1.1322,0.63708 2.2617,-4.20725 -0.8325,-3.03889 1.8761,0.29899 5.4377,1.63181 7.6886,3.00673 3.1293,2.27742 5.8388,6.29361 4.7498,10.28829 -2.0156,3.92737 -6.9772,4.04373 -10.6174,5.50463 -1.9861,0.40173 -5.3507,2.58848 -3.8999,-1.15529 -0.5766,-3.67029 5.1518,-1.88442 7.2961,-0.72499 3.8983,2.37127 2.5064,7.59633 -0.685,9.91553 -2.5163,3.54834 -6.549,5.889 -10.885,6.29202 -1.7056,1.23169 -0.4391,-3.98566 -0.061,-4.37188 4.7897,0.76822 10.5567,2.37446 12.2911,7.50195 1.5156,3.4852 -1.2959,6.82874 -4.2104,8.41825 -5.9823,3.8674 -13.2279,4.30099 -19.9923,5.86702 -3.3186,0.27708 -6.7064,1.26191 -10.0264,0.65772 -3.7117,-2.07763 0.1712,-6.06104 3.3278,-4.87313 6.2082,-0.57502 12.2948,-2.00739 18.379,-3.317 2.6387,-1.07261 7.3347,-2.57638 7.8818,-4.85832 -1.1664,-3.55257 -5.5655,-3.74636 -8.6491,-4.50505 -2.6344,-0.79647 -2.5917,-6.73442 1.3321,-5.59815 3.2946,-0.43126 5.7007,-2.83247 7.5886,-5.37855 3.6018,-2.21307 -2.5701,-2.0905 -4.4357,-2.18296 -2.913,-0.0942 -2.3622,-6.36408 0.8881,-5.7559 3.1456,-1.00357 6.9851,-1.98709 9.6863,-3.0995 0.4823,-0.60101 -1.9387,-4.9372 -4.2777,-5.28684 -2.1842,-1.63294 -7.6647,-0.88371 -7.2526,-4.47144 -0.051,-3.24682 3.9434,-3.76993 6.3249,-4.60053 4.9303,-1.19502 9.823,-2.78125 14.183,-5.43519 0.9888,-1.32606 -2.5956,-1.92693 -4.2653,-1.55237 -7.0942,-0.24799 -14.2351,0.77098 -20.9294,3.12343 -5.2631,1.41094 -11.5328,-1.60344 -13.4266,-6.75486 -0.3543,-1.53671 -0.8935,-3.59102 0.8126,-1.44373 1.8294,0.32824 3.0554,-0.67195 0.8996,0.80095 -3.4256,2.17189 -7.8874,2.75014 -10.7202,5.80811 -2.6208,5.68621 -3.7662,11.93369 -5.9654,17.76053 -1.5323,2.25305 -5.2519,0.46017 -4.4191,-2.17063 z"
         style="fill:#000000;fill-opacity:1;fill-rule:nonzero;stroke:none" />
      <path
         inkscape:connector-curvature="0"
         id="path3464"
         d="m 299.76891,665.52504 c 0.2961,1.79864 0.6687,3.6813 1.7555,5.18578 1.1436,1.12421 2.8481,0.57039 4.2297,0.33236 2.2731,-0.45925 4.5051,-1.08216 6.7426,-1.6853 2.6193,-0.69197 5.4863,0.0779 7.9857,-1.1237 0.864,-1.13326 0.3592,-2.78014 0.4939,-4.13977 -0.031,-1.29948 0.1082,-2.92769 1.4772,-3.53092 1.5516,-0.80168 3.6609,0.43938 3.5811,2.22208 -0.1697,1.79796 0.094,3.6204 -0.2124,5.41472 -0.3308,2.54337 -2.4025,4.66976 -4.9006,5.17862 -1.8318,0.59141 -3.761,0.60412 -5.6635,0.63998 -2.4225,0.1484 -4.6628,1.21073 -7.0465,1.59138 -2.5614,0.55731 -5.368,1.31664 -7.8782,0.14985 -1.9215,-0.73764 -3.355,-2.3844 -4.074,-4.28524 -0.7882,-1.8579 -1.3854,-3.85224 -1.449,-5.87715 0.068,-1.99419 2.8264,-2.9812 4.1891,-1.56667 0.4126,0.3973 0.6598,0.93783 0.7694,1.49398 z"
         style="fill:#000000;fill-opacity:1;fill-rule:nonzero;stroke:none" />
      <path
         inkscape:connector-curvature="0"
         id="path3466"
         d="m 308.11441,595.97539 c 3.7347,-3.20455 6.4668,-7.50972 8.5187,-11.94347 1.8896,-3.34004 0.6255,-7.13542 1.3006,-10.51202 3.1458,-3.45578 8.4374,-2.58631 12.6401,-3.4598 8.0831,-1.27192 16.3406,-1.4978 24.258,-3.69258 4.1992,-0.28466 8.3099,-1.13127 12.4575,-1.76526 4.1857,-0.0186 8.1699,-1.38938 12.1906,-2.31384 4.7511,0.61347 4.1948,6.81838 5.8593,10.23003 1.6868,5.16255 2.2853,10.61202 3.0844,15.96672 0.7517,3.10502 -0.2005,6.65513 -3.5113,7.74401 -5.38,2.20473 -10.9551,4.27076 -16.7465,4.9815 -1.9908,0.41176 -5.9416,-0.49597 -3.7537,0.0683 -0.1161,6.99914 -2.2543,14.67308 -8.2152,18.93433 -4.5059,3.28922 -9.7619,5.76114 -15.3415,6.4345 -4.5192,-0.0936 -2.553,-6.24979 1.3344,-5.31191 4.3771,-1.00039 8.6186,-3.04155 12.03,-5.99038 4.0493,-3.55045 5.069,-9.33543 5.2102,-14.46368 -0.2002,-5.07874 5.2594,-4.94922 8.8098,-4.67759 5.2703,-0.92359 10.4266,-2.69946 15.3106,-4.86269 0.087,1.45368 -0.1095,-4.37684 -0.5458,-5.54669 -0.7612,-5.19529 -1.7298,-10.35453 -3.5221,-15.30449 -0.2393,-1.74844 -2.2811,-4.48545 0.6396,-3.30158 -4.573,1.48594 -9.313,2.30085 -14.1032,2.60243 -4.8127,1.29924 -9.8884,0.98076 -14.6473,2.52499 -7.5569,1.43043 -15.2692,1.87796 -22.8732,3.02591 -2.0083,0.0217 -5.014,0.92571 -6.4064,0.73995 0.6606,-3.33204 1.0643,3.0698 0.6742,4.36254 -1.0753,6.73361 -5.0305,12.61673 -9.4916,17.60987 -1.4019,2.76765 -6.623,3.43616 -6.0868,-0.67757 0.1445,-0.55318 0.4957,-1.03613 0.9266,-1.40151 z"
         style="fill:#000000;fill-opacity:1;fill-rule:nonzero;stroke:none" />
      <path
         inkscape:connector-curvature="0"
         id="path3468"
         d="m 360.73051,572.00002 c -3.4149,0.0405 -6.738,0.98209 -10.1544,1.00663 -2.6127,0.13377 -5.1651,0.75911 -7.6269,1.61837 -1.3382,-1.46483 -4.1483,-0.53555 -4.2518,1.4822 0.076,1.97249 0.6439,3.91835 1.1268,5.8303 1.0342,3.83338 2.1837,7.63969 3.5162,11.37879 0.8751,2.35054 3.4913,3.29376 5.81,3.3438 3.4214,0.22425 6.8571,0.007 10.2261,-0.62652 4.1459,-0.69365 8.1272,-2.12001 12.0792,-3.51233 1.9976,-0.61758 3.0248,-2.82807 2.7147,-4.8068 -0.3957,-3.24897 -1.7709,-6.26497 -2.6274,-9.40194 -0.6577,-1.5651 -0.7683,-3.49143 -2.2356,-4.59096 -2.0364,-1.70266 -4.876,-1.63257 -7.3931,-1.74016 -0.3947,-0.002 -0.7894,0.004 -1.1838,0.0186 z m 0.031,5 c 1.7411,-0.0134 3.527,-0.0313 5.2187,0.40625 1.0833,3.54258 2.3917,7.04114 3.3125,10.62495 -2.2329,0.65315 -4.396,1.52739 -6.6567,2.10774 -2.8276,0.88327 -5.7845,1.2948 -8.7243,1.56966 -1.9303,0.15796 -3.9353,-0.18015 -5.8158,-0.002 -1.127,-2.92764 -2.0273,-6.00674 -2.8927,-9.04594 -0.1624,-1.37504 -1.8254,-3.57992 0.4521,-3.66941 2.9598,-1.02046 6.1124,-0.9839 9.1875,-1.30859 1.9716,-0.25899 3.9257,-0.62381 5.9187,-0.68289 z m 5,0.0937 c 0.2391,-0.0747 0.2609,0.70745 0,0 z m 3.9375,10.625 c 0.5405,0.007 -0.5864,0.41572 0,0 z"
         style="fill:#000000;fill-opacity:1;fill-rule:nonzero;stroke:none" />
      <path
         sodipodi:nodetypes="cccccccccccccccc"
         inkscape:connector-curvature="0"
         id="path3470"
         d="m 306.73051,578.56252 c -2.2759,-0.056 -4.4991,0.54526 -6.567,1.45696 -1.8154,0.68 -3.7044,1.48622 -4.9119,3.0801 -0.7557,0.96817 -1.2409,2.19461 -1.037,3.43724 0.2757,2.48247 1.1652,5.16409 3.3596,6.58815 1.4777,0.79393 3.3774,1.08065 4.8553,0.12627 1.5147,-0.85211 2.575,-2.44475 2.8805,-4.14137 0.2345,-0.78448 1.8477,-0.46881 2.6583,-0.50686 1.5086,-0.12397 2.5348,1.14343 3.4168,2.17327 0.6493,0.85726 1.3141,1.96705 2.52,2.02974 1.7087,0.21861 3.2619,-1.64201 2.6253,-3.26841 0.4285,-2.58638 0.3337,-2.0499 1.3526,-3.55468 1.38,0.77904 1.8328,-0.86443 2.126,-2.40841 0.3457,-1.26864 -0.5581,-2.44994 -1.6414,-2.99628 -1.4613,-0.91754 -3.1842,-1.33723 -4.8685,-1.61616 -2.2507,-0.23441 -4.5001,-0.49872 -6.7686,-0.39956 z"
         style="fill:#000000;fill-opacity:1;fill-rule:nonzero;stroke:none" />
      <path
         inkscape:connector-curvature="0"
         id="path3472"
         d="m 385.84321,584.57139 c 2.9579,-0.74967 5.7781,-2.05482 8.8467,-2.32471 2.96776,-0.31999 5.86322,-1.07374 8.81048,-1.51071 2.26916,-0.25355 4.56682,0.008 6.81896,-0.44017 0.74058,-0.0614 0.86755,-0.25409 0.14257,0.19608 -0.19517,-0.65563 0.39522,-2.47777 0.68761,-3.53843 0.62937,-1.88343 1.33433,-3.75827 2.20424,-5.53521 1.06006,-1.69048 3.94115,-1.15912 4.40941,0.74836 0.38117,1.67678 -0.84102,3.12276 -1.27657,4.66357 -0.76558,1.76545 -1.02311,3.67325 -1.46268,5.52977 -0.55546,1.48802 -1.87085,2.68963 -3.49147,2.82617 -2.00203,0.31387 -4.01963,0.45423 -6.04492,0.42289 -2.86148,0.0985 -5.60738,1.02918 -8.44313,1.35328 -2.0985,0.26752 -4.211,0.5515 -6.194,1.32617 -1.5203,0.42243 -3.012,1.0906 -4.5946,1.1894 -1.9732,-0.0483 -3.0294,-2.77143 -1.6355,-4.15304 0.3312,-0.35512 0.7649,-0.60152 1.2229,-0.75342 z"
         style="fill:#000000;fill-opacity:1;fill-rule:nonzero;stroke:none" />
      <path
         inkscape:connector-curvature="0"
         id="path3476"
         d="m 433.48051,548.34377 c -1.81473,-0.003 -3.63431,0.65801 -4.96875,1.90625 -1.55081,1.5831 -2.51138,3.6637 -3.1875,5.75 -0.0651,0.19706 -0.12845,0.38734 -0.15625,0.59375 -0.0843,0.48208 0.0135,0.97353 0.21875,1.40625 -4.02611,0.87624 -8.0111,1.9636 -12.03125,2.875 -3.2033,0.48514 -6.25744,1.51373 -9.4375,2.09375 -3.25711,0.3879 -6.48735,1.03411 -9.71875,1.59375 -2.4954,0.78308 -5.10205,0.79103 -7.65625,1.25 -2.1743,-0.26611 -5.44475,0.76962 -4.34375,3.59375 1.2279,2.42454 4.35365,1.30865 6.46875,1.125 2.8888,-0.13034 5.657,-0.93087 8.5,-1.375 4.18568,-1.00519 8.57166,-1.02512 12.65625,-2.46875 7.24022,-1.2241 14.23393,-3.65021 21.5,-4.71875 2.92024,-0.67019 5.92517,-1.3045 8.9375,-1.0625 1.45432,-0.45782 1.17092,2.21769 1.6875,3.59375 -0.18758,0.0158 -0.37945,0.0332 -0.5625,0.0312 -3.21337,0.67404 -6.47783,1.09773 -9.71875,1.625 -7.53784,1.03562 -15.1924,1.30154 -22.65625,2.875 -8.2568,1.34668 -16.1695,4.09858 -24.3125,5.9375 -1.7674,0.22545 -2.79095,2.3109 -1.78125,3.8125 1.8881,2.39752 5.01145,0.16722 7.40625,-0.0312 7.0015,-1.94764 14.00917,-3.89659 21.1875,-5.09375 7.74783,-1.50781 15.70878,-1.58793 23.46875,-3 2.83789,-0.13368 5.54231,-1.14845 8.375,-1.21875 2.82451,-0.13153 4.27704,-3.32339 3.5625,-5.8125 -0.65556,-2.92182 -1.35602,-6.81331 -4.875,-7.46875 -1.81157,-0.35708 -3.66561,-0.36828 -5.5,-0.1875 0.70744,-0.61549 0.95382,-1.65544 0.71875,-2.5625 -0.28638,-1.04098 -0.329,-2.15625 -0.84375,-3.125 -0.53848,-1.11753 -1.7324,-1.79739 -2.9375,-1.9375 z m -1.28125,5.34375 c 0.12441,0.61467 0.23648,1.24008 0.5625,1.78125 0.24024,0.41921 0.63801,0.685 1.0625,0.875 -0.96018,0.17696 -1.90631,0.40434 -2.84375,0.625 -0.2526,0.037 -0.49802,0.0851 -0.75,0.125 0.35647,-0.95665 0.68395,-1.92971 1.3125,-2.75 0.17033,-0.26075 0.39945,-0.48681 0.65625,-0.65625 z"
         style="fill:#000000;fill-opacity:1;fill-rule:nonzero;stroke:none" />
      <path
         inkscape:connector-curvature="0"
         id="path3481"
         d="m 400.76176,482.34377 c -6.19155,3.53391 3.9465,7.86958 6.85746,10.03272 8.56414,4.38812 13.8883,12.5851 20.44095,19.26181 7.56397,8.94924 14.14993,18.70551 20.33223,28.63723 4.16489,7.3325 8.74036,14.96956 9.25062,23.57533 1.49605,9.01346 4.14571,17.76447 7.50974,26.24223 2.09296,5.19488 -0.63552,9.93014 -0.26634,15.13489 -1.89145,5.23353 4.79709,5.24527 6.17901,4.52881 9.45122,0.84405 -0.58884,-12.44407 3.85946,-15.73013 4.55808,-5.18756 10.24337,-9.415 17.0433,-11.07096 8.17004,-2.37774 16.408,-4.65282 24.16696,-8.20444 3.4885,-7.44327 -7.18769,-2.73371 -10.64629,-1.13773 -10.73925,3.9653 -23.45477,5.04721 -31.43504,14.21818 -2.215,2.68873 -4.24463,4.67859 -4.44826,-0.23799 -4.13578,-9.77682 -6.60751,-20.17982 -7.875,-30.6875 -5.09151,-15.33565 -14.85878,-28.45234 -24.15735,-41.45342 -5.12801,-6.75362 -11.0721,-12.80335 -16.64199,-19.17503 -5.51233,-5.75552 -12.81475,-9.15201 -19.16522,-13.81599 l -1.00419,-0.11806 -5e-5,5e-5 z m 69.90625,109.03125 c 5.20742,0.49921 -1.65423,1.58119 0,0 z m 3.34375,14.34375 c 0.78386,0.86355 0.0556,0.25655 0,0 z"
         style="fill:#000000;fill-opacity:1;fill-rule:nonzero;stroke:none" />
      <path
         inkscape:connector-curvature="0"
         id="path3483"
         d="m 428.47946,622.86249 c 8.99181,7.47166 16.72408,16.29685 25.3609,24.1442 4.08849,2.918 8.01549,7.12823 13.23542,7.68438 4.61025,-0.43354 8.73258,-2.90929 13.0532,-4.41991 8.71761,-4.36941 16.78135,-9.99356 25.81851,-13.75879 5.4809,-2.68884 12.3089,-4.00627 15.74014,-9.55554 3.38431,-4.21168 2.58544,-10.11236 -0.9513,-13.84111 -0.43872,-5.98164 7.33485,-6.57255 10.96402,-9.5777 3.16269,-2.88 0.38955,-8.25459 0.004,-12.06808 -1.74513,-6.28254 -2.85474,-13.96764 -9.3423,-17.19335 -3.5006,-0.82089 -13.41914,1.43305 -10.09559,-4.9701 4.59039,-0.61477 10.35971,-1.15511 14.41431,1.81338 7.2736,4.79638 8.48231,14.12338 10.49616,21.91978 0.86266,4.91842 2.65153,11.92046 -2.87404,14.76774 -2.34738,2.35562 -10.30215,4.32776 -8.32824,4.54355 4.67784,4.71055 3.21291,12.56885 -0.18279,17.5362 -3.92024,6.27194 -11.36595,8.28153 -17.71874,11.15182 -9.08609,3.77793 -17.16023,9.48585 -25.95268,13.8195 -5.91261,1.99549 -11.89697,6.12437 -18.37168,4.35125 -9.34453,-3.7586 -16.47921,-11.28528 -23.38655,-18.37134 -5.12643,-5.05214 -10.34957,-10.03739 -15.68161,-14.84389 -1.44634,-2.34493 1.7935,-4.94867 3.79865,-3.13199 z"
         style="fill:#000000;fill-opacity:1;fill-rule:nonzero;stroke:none" />
      <path
         inkscape:connector-curvature="0"
         id="path3487"
         d="m 525.31408,566.43538 c 2.37185,-1.43212 4.5358,-3.15075 6.66693,-4.90491 2.10697,-0.73281 3.11939,-2.18591 3.20987,-4.44454 1.00408,-4.80618 3.51373,-9.09563 6.27563,-13.08832 1.60681,-2.21849 2.90189,-4.6696 4.62174,-6.79646 2.53644,-2.51012 6.34555,-1.8176 9.54797,-2.46997 3.61764,-0.45317 7.29124,-0.77747 10.93246,-0.53536 2.59983,0.76447 4.60548,2.74276 6.47751,4.60894 1.95498,1.45498 3.54283,3.35787 4.4605,5.63072 2.56059,1.98905 -0.0838,6.51953 -2.93176,4.38445 -1.75302,-1.54513 -1.94839,-4.2562 -4.00323,-5.53953 -1.52267,-1.36607 -3.26304,-3.14574 -4.74072,-4.12683 -2.22502,-0.11927 -5.14891,0.0431 -7.6322,0.30281 -2.63306,0.37167 -5.28618,0.62365 -7.92442,0.91071 -1.60323,0.98541 -2.18014,3.11805 -3.40234,4.54549 -2.71011,4.05656 -5.7132,8.13331 -6.72664,13.00808 -0.60272,2.49428 -0.98823,5.44956 -3.51231,6.80309 -2.37903,0.84553 -3.93412,2.98512 -6.08189,4.23964 -1.74631,1.66112 -5.64775,3.70148 -6.55481,0.10764 -0.22352,-1.06236 0.40291,-2.1243 1.31771,-2.63565 z"
         style="fill:#000000;fill-opacity:1;fill-rule:nonzero;stroke:none" />
      <path
         inkscape:connector-curvature="0"
         id="path3491"
         d="m 555.28179,563.373 c 1.61547,-0.84687 3.71503,-1.79051 3.92504,-3.85333 0.21754,-1.80291 0.41892,-3.70137 -0.21966,-5.44617 -0.5362,-1.43731 0.3551,-2.89552 1.62938,-3.5531 1.2941,-0.6153 2.69438,0.27943 3.82478,0.88183 2.6408,1.56676 5.43603,2.85077 8.13555,4.30526 1.89732,0.88297 4.03876,0.59471 6.05911,0.64116 0.93333,-0.27512 -0.2544,0.11659 0.24228,-0.64078 0.38715,-1.90576 0.0107,-3.84967 -0.60666,-5.66055 -0.46371,-1.23211 -1.04432,-2.82165 0.0835,-3.89517 1.14795,-1.28001 3.49306,-0.91316 4.10619,0.72849 0.93676,2.4862 1.68805,5.10127 1.55496,7.78477 -0.0864,2.35195 -0.85284,5.10032 -3.16067,6.1808 -2.19809,0.7729 -4.58545,0.51753 -6.8669,0.38627 -2.47653,-0.22868 -4.61181,-1.55914 -6.76345,-2.67953 -2.01474,-0.96843 -4.09994,-2.11968 -5.95429,-3.20275 1.21448,0.16695 2.3841,-0.93724 2.58739,-2.0655 -0.2738,-1.60035 0.36549,0.90464 0.41892,1.42893 0.25541,2.29366 0.1443,4.6672 -0.45458,6.90322 -0.7136,2.63771 -2.94091,4.4899 -5.28678,5.6865 -1.09459,0.70093 -2.61172,1.33582 -3.76909,0.38983 -1.40762,-0.98733 -1.32269,-3.35944 0.23426,-4.16372 l 0.13648,-0.0802 0.1443,-0.0762 -8e-5,-3e-5 z"
         style="fill:#000000;fill-opacity:1;fill-rule:nonzero;stroke:none" />
      <path
         inkscape:connector-curvature="0"
         id="path3493"
         d="m 540.15571,596.66158 c 2.92056,1.21963 5.57385,2.94335 8.26142,4.5867 1.80924,1.35332 4.03869,1.73845 6.24668,1.56997 2.92484,0.18913 5.73584,-0.80369 8.60608,-1.17988 2.63641,-0.46444 5.22691,-1.2387 7.52307,-2.64689 3.79455,-2.07223 7.01994,-5.02225 10.32021,-7.77464 1.0335,-1.57173 3.62049,-1.3776 4.35742,0.3637 0.8454,1.6647 -0.65392,3.15802 -1.87772,4.09669 -4.67168,3.96363 -9.52066,8.05471 -15.45843,9.94818 -3.39758,0.93705 -6.89245,1.43958 -10.35154,2.08439 -2.61355,0.16091 -5.29234,0.27773 -7.86983,-0.26444 -4.02615,-1.27154 -7.17449,-4.29243 -11.06188,-5.87552 -1.61663,-0.39193 -2.88703,-2.20002 -1.98941,-3.78535 0.57617,-1.22374 2.08887,-1.67538 3.29393,-1.12291 z"
         style="fill:#000000;fill-opacity:1;fill-rule:nonzero;stroke:none" />
      <path
         inkscape:connector-curvature="0"
         id="path3495"
         d="m 577.09746,539.11443 c 4.28431,-0.43162 8.426,-1.63256 12.49409,-2.99278 3.26256,-1.04189 6.58021,-1.91438 9.75426,-3.21198 2.7323,-0.67124 5.23517,-2.21612 8.1051,-2.30732 3.58204,-0.58835 7.25439,-0.68899 10.86549,-0.36214 3.31962,0.70441 6.42303,3.08656 7.61732,6.30802 0.84593,2.67632 0.98199,6.15845 -1.40769,8.10849 -2.29435,2.0009 -5.33181,2.73492 -7.97467,4.14265 -3.47573,1.12025 -6.96548,2.20317 -10.32089,3.65858 -4.44745,1.83315 -9.21456,2.72415 -13.65069,4.58667 -2.04322,0.55087 -4.05609,1.16183 -6.07982,1.76837 0.3481,0.0937 -2.43943,0.92936 -2.99768,-0.33606 -1.94295,-1.85925 0.15561,-4.57677 2.37514,-4.70989 2.77095,-0.78331 5.54124,-1.55264 8.22185,-2.6202 4.25583,-1.35894 8.59526,-2.48248 12.6953,-4.29083 3.36816,-1.495 7.07093,-2.09061 10.33131,-3.83907 1.45095,-0.80827 3.54597,-1.08529 4.39663,-2.56599 0.20123,-2.08517 -1.01442,-3.97258 -2.87326,-4.85518 -1.98508,-0.96255 -4.2738,-0.36281 -6.39443,-0.48442 -2.26316,0.19469 -4.59522,0.30747 -6.77118,0.97221 -2.37155,0.96996 -4.8548,1.5886 -7.22271,2.57385 -4.54535,1.38484 -9.05157,2.91501 -13.63187,4.17785 -2.55714,0.57297 -5.14929,1.163 -7.77207,1.25584 -2.23598,-0.0805 -3.03616,-3.41753 -1.12857,-4.54261 0.40723,-0.26397 0.88841,-0.39856 1.36904,-0.43406 z"
         style="fill:#000000;fill-opacity:1;fill-rule:nonzero;stroke:none" />
      <path
         inkscape:connector-curvature="0"
         id="path3497"
         d="m 604.88714,548.76393 c 2.53355,0.036 5.22459,-0.0664 7.57337,1.01773 2.25209,1.14042 3.45777,3.5168 3.94238,5.8974 0.72614,2.86679 0.84014,6.37171 -1.44731,8.59648 -2.52757,2.55969 -5.77265,4.31398 -9.1848,5.39273 -4.61622,1.55271 -9.30685,2.8736 -13.92068,4.43408 -2.75942,0.88062 -5.85226,1.23726 -8.56059,-0.0256 -2.38972,-0.73229 -4.07277,-2.68664 -5.27428,-4.78483 -1.47004,-1.75225 -2.25119,-4.28289 -1.2127,-6.44368 1.22003,-2.51613 3.93238,-3.57885 6.27578,-4.76086 1.40664,-0.80622 3.60176,-1.49612 4.79182,0.0268 1.20993,1.41728 0.28029,3.845 -1.59329,4.0485 -1.36926,0.50463 -2.69948,1.28014 -4.017,1.95949 -2.10163,0.61124 -0.0641,2.14738 0.5393,3.38254 1.05581,1.95691 3.63017,2.71625 5.71065,2.27354 3.21381,-0.7003 6.26542,-1.98875 9.43265,-2.8702 3.2309,-1.01869 6.53783,-1.89625 9.61134,-3.33469 1.46234,-0.93747 3.15233,-1.76822 4.14773,-3.23342 0.49924,-1.84485 -0.20165,-3.88437 -0.87781,-5.617 -1.29491,-1.23139 -3.3639,-0.77862 -5.00438,-0.9637 -1.63042,0.32617 -3.66703,-0.61948 -3.58384,-2.49525 -0.053,-1.42851 1.24817,-2.58831 2.65166,-2.49999 z"
         style="fill:#000000;fill-opacity:1;fill-rule:nonzero;stroke:none" />
      <path
         inkscape:connector-curvature="0"
         id="path3499"
         d="m 615.41441,564.66358 c 0.27744,3.16258 -1.17921,6.24727 -3.13357,8.64939 -2.51121,2.83182 -6.15626,4.20097 -9.04845,6.55936 -1.70875,1.46231 -3.78193,2.35219 -5.87922,3.10386 -3.8285,1.45819 -8.33882,2.39824 -12.17759,0.4689 -2.07642,-1.05228 -3.17162,-3.34067 -3.7545,-5.48867 -0.4112,-1.67652 0.12003,-3.51952 1.48966,-4.60613 1.01912,-1.3252 3.25968,-1.39952 4.16287,0.0869 0.8682,0.973 0.33829,3.16577 -0.74992,3.29438 -0.25883,-0.83717 0.37413,1.58778 0.75056,1.98628 1.03743,0.85707 2.54365,0.89449 3.8386,0.76954 2.72792,-0.27912 5.30213,-1.37504 7.77673,-2.49169 2.22602,-1.61472 4.42052,-3.2833 6.82836,-4.62752 2.10672,-1.1566 3.89929,-2.95427 4.66758,-5.26967 0.56913,-1.50357 -0.29854,-3.69727 1.55694,-4.52825 1.57096,-0.86284 3.61379,0.2878 3.67195,2.09328 z"
         style="fill:#000000;fill-opacity:1;fill-rule:nonzero;stroke:none" />
      <path
         inkscape:connector-curvature="0"
         id="path3501"
         d="m 587.13295,585.65298 c -0.99627,2.18015 -1.90709,4.47875 -2.02132,6.89422 0.15405,1.36816 1.73289,1.63602 2.85553,1.65455 3.07038,0.32441 6.05569,-0.87068 8.58947,-2.51609 2.86132,-1.80465 6.06394,-3.514 7.6856,-6.64185 0.93712,-1.24847 1.09296,-2.82199 1.40632,-4.30252 0.25043,-1.47508 -0.0648,-3.34508 1.36413,-4.30914 1.52388,-1.09033 3.96903,0.12478 3.87557,2.04368 -0.1443,1.80808 -0.2953,3.63784 -0.81106,5.39427 -0.30991,2.11803 -1.60534,3.86537 -2.76151,5.59859 -2.49061,3.30256 -6.2244,5.27715 -9.68533,7.38811 -3.02568,1.67309 -6.51774,2.66985 -9.99505,2.32787 -2.7876,-0.004 -5.69456,-1.42487 -6.89557,-4.03558 -1.24904,-2.93323 -0.24764,-6.17769 0.76733,-9.01957 0.6077,-1.30519 0.89266,-2.92222 2.13474,-3.79641 1.6394,-1.0817 4.11465,0.48553 3.74419,2.44619 -0.0396,0.30196 -0.12957,0.59594 -0.25304,0.87368 z"
         style="fill:#000000;fill-opacity:1;fill-rule:nonzero;stroke:none" />
      <path
         inkscape:connector-curvature="0"
         id="path3503"
         d="m 282.72971,353.8055 c -6.4029,1.58014 -7.6712,9.49707 -10.1038,14.76678 -4.0866,10.05923 -6.5334,20.74555 -7.8131,31.50571 -7.3699,-0.56646 -6.9359,11.13494 -14.0892,6.92054 -3.2367,-5.68744 3.9615,-15.56575 -4.8012,-19.14352 -4.4632,-3.52407 -8.9124,-7.0752 -13.9284,-9.78615 -6.2746,-5.9521 -9.3359,4.49383 -9.8187,9.29049 -1.8264,8.81188 -2.5976,17.98609 -1.7167,26.93496 2.5574,9.05356 9.7248,17.47113 19.467,18.68463 15.0322,2.86904 30.3809,3.57775 45.6143,4.64554 20.0001,0.6026 40.0183,0.88659 60.0096,1.64628 10.2025,0.9247 20.475,0.94099 30.7083,1.10729 7.2103,-0.65648 8.3465,-10.94114 9.7725,-16.735 1.3078,-8.37123 2.6857,-17.03932 1.3487,-25.47638 -1.01,-5.39364 -10.9251,-11.3434 -14.1515,-4.94748 -3.4543,8.29236 -6.4921,17.49723 -14.0739,23.03654 -4.0021,4.88776 -10.6568,5.82653 -16.5847,5.20769 -0.8769,-5.43134 -1.9893,-13.63242 -8.2189,-14.65407 0.3746,-10.81026 0.2314,-22.0841 -4.4987,-32.05833 -2.9628,-6.18059 -8.0077,-15.05428 -15.8604,-14.11982 -6.18,3.66754 -8.2047,11.34235 -13.0751,16.33806 -3.0531,5.38419 -3.9933,-6.3399 -6.0428,-8.84838 -3.0948,-4.97904 -5.2163,-13.90447 -12.1433,-14.31536 z m 0.2469,4.97676 c 4.9716,4.27713 7.3087,11.57277 9.7348,17.69419 0.6134,5.27653 6.9778,14.59707 10.6477,5.73984 4.8197,-4.81551 7.5985,-13.88925 13.1729,-16.66098 8.6574,6.15377 11.8909,17.2769 12.6233,27.39445 1.7277,5.87029 -2.0819,13.14057 2.0197,18.18545 6.0861,-0.11421 5.3656,7.63784 6.7405,12.45072 3.6008,5.09535 11.7468,2.88937 16.9311,1.52871 6.0908,-2.60925 11.1808,-7.7346 14.9749,-13.10842 3.4037,-5.0576 5.5418,-10.85345 7.833,-16.4599 8.7168,2.13085 4.3453,13.03188 4.6488,19.33833 -1.1356,6.8193 -1.2325,14.71493 -5.9166,20.14212 -2.2995,0.95438 -5.384,0.0296 -8.0097,0.23121 -9.2532,-0.0334 -18.4741,-0.661 -27.698,-1.21404 -20.6423,-0.63547 -41.3092,-0.81991 -61.9304,-1.84627 -13.8373,-1.23518 -27.8804,-1.62389 -41.4262,-4.96432 -6.8564,-2.68083 -11.831,-9.84095 -12.2716,-17.10544 -0.05,-9.55329 0.8922,-19.12715 3.6575,-28.29871 5.3785,3.01256 10.1115,6.9826 15.1083,10.54902 5.0903,4.8454 -3.8699,15.02219 4.6353,19.06325 5.0801,2.87729 13.1416,1.7885 13.7286,-5.05421 8.0768,-0.58954 8.064,-8.49582 9.0062,-14.67908 1.9195,-11.00479 5.5889,-21.72493 10.7425,-31.62007 2.0971,-1.29223 -0.1147,-0.85925 1.0473,-1.30585 l 10e-5,0 z m -55.5576,22.13842 c 0.1617,-0.0959 0.4901,0.35158 0,0 z m 37.3593,19.28146 c 0.2383,0.76885 -0.3851,0.10694 0,0 z m 68.9749,6.71685 c 0.115,-0.0664 0.3749,0.23948 0,0 z"
         style="fill:#000000;fill-opacity:1;fill-rule:nonzero;stroke:none" />
      <path
         style="fill:#ff0000;fill-opacity:1;fill-rule:nonzero;stroke:none"
         d="m 316.44921,441.65627 c 0.014,-0.004 0.039,0.004 0.062,0 -0.031,0.0101 -0.063,0.0212 -0.094,0.0312 -0.02,-0.0129 0,-0.0223 0.031,-0.0312 z"
         id="path4112"
         inkscape:connector-curvature="0" />
    </g>
  </g>
</svg>
